Coordinates
version=1
nRows=29
nColumns=15
inDegrees=yes

Units are S.I. units (second, meters, Newtons, ...)
Angles are in degrees.

endheader
time	sacrum_pitch	sacrum_roll	sacrum_yaw	sacrum_x	sacrum_y	sacrum_z	sacroiliac_flx	hip_flx	hip_add	hip_int	knee_flx	ankle_flx	ankle_add	ankle_int
6.20000000	30.00000000	0.00000000	0.00000000	0.08107023	0.06717844	0.00000000	0.00000000	1.21548475	0.00000000	0.00000000	-94.90749286	-15.80973773	0.00000000	0.00000000
6.20500000	30.00000000	0.00000000	0.00000000	0.08077944	0.06743378	0.00000000	0.00000000	1.34426443	0.00000000	0.00000000	-94.87877722	-16.11024351	0.00000000	0.00000000
6.21000000	30.00000000	0.00000000	0.00000000	0.08041509	0.06770125	0.00000000	0.00000000	1.40229515	0.00000000	0.00000000	-94.98969892	-16.33143874	0.00000000	0.00000000
6.21500000	30.00000000	0.00000000	0.00000000	0.08001595	0.06800292	0.00000000	0.00000000	1.29334291	0.00000000	0.00000000	-95.08850313	-16.40432079	0.00000000	0.00000000
6.22000000	30.00000000	0.00000000	0.00000000	0.07960200	0.06830418	0.00000000	0.00000000	0.92720743	0.00000000	0.00000000	-94.83537233	-16.49704087	0.00000000	0.00000000
6.22500000	30.00000000	0.00000000	0.00000000	0.07918643	0.06856124	0.00000000	0.00000000	0.65340747	0.00000000	0.00000000	-94.74878231	-17.03932896	0.00000000	0.00000000
6.23000000	30.00000000	0.00000000	0.00000000	0.07879638	0.06880080	0.00000000	0.00000000	0.49435786	0.00000000	0.00000000	-94.68678966	-17.47479745	0.00000000	0.00000000
6.23500000	30.00000000	0.00000000	0.00000000	0.07840115	0.06906524	0.00000000	0.00000000	0.18575058	0.00000000	0.00000000	-94.63021536	-18.27868956	0.00000000	0.00000000
6.24000000	30.00000000	0.00000000	0.00000000	0.07805907	0.06925166	0.00000000	0.00000000	0.07216231	0.00000000	0.00000000	-94.80144167	-18.74497410	0.00000000	0.00000000
6.24500000	30.00000000	0.00000000	0.00000000	0.07775878	0.06947624	0.00000000	0.00000000	-0.15199217	0.00000000	0.00000000	-94.98193698	-18.87039262	0.00000000	0.00000000
6.25000000	30.00000000	0.00000000	0.00000000	0.07746759	0.06963420	0.00000000	0.00000000	-0.50146913	0.00000000	0.00000000	-95.13067709	-19.42744042	0.00000000	0.00000000
6.25500000	30.00000000	0.00000000	0.00000000	0.07724599	0.06975663	0.00000000	0.00000000	-0.66266631	0.00000000	0.00000000	-95.19047329	-19.72587424	0.00000000	0.00000000
6.26000000	30.00000000	0.00000000	0.00000000	0.07709733	0.06985339	0.00000000	0.00000000	-0.75777556	0.00000000	0.00000000	-95.59651694	-19.87701448	0.00000000	0.00000000
6.26500000	30.00000000	0.00000000	0.00000000	0.07704730	0.06990102	0.00000000	0.00000000	-0.85241442	0.00000000	0.00000000	-95.65152620	-20.34192924	0.00000000	0.00000000
6.27000000	30.00000000	0.00000000	0.00000000	0.07701989	0.06992162	0.00000000	0.00000000	-0.98742481	0.00000000	0.00000000	-95.74574706	-20.32023265	0.00000000	0.00000000
6.27500000	30.00000000	0.00000000	0.00000000	0.07699780	0.06990102	0.00000000	0.00000000	-1.26426651	0.00000000	0.00000000	-95.88751472	-20.28725718	0.00000000	0.00000000
6.28000000	30.00000000	0.00000000	0.00000000	0.07699647	0.06987350	0.00000000	0.00000000	-1.32796636	0.00000000	0.00000000	-96.07678080	-20.42455327	0.00000000	0.00000000
6.28500000	30.00000000	0.00000000	0.00000000	0.07694442	0.06982986	0.00000000	0.00000000	-1.28981356	0.00000000	0.00000000	-96.41975770	-20.64584115	0.00000000	0.00000000
6.29000000	30.00000000	0.00000000	0.00000000	0.07691375	0.06979190	0.00000000	0.00000000	-1.25003905	0.00000000	0.00000000	-96.75342040	-20.49330869	0.00000000	0.00000000
6.29500000	30.00000000	0.00000000	0.00000000	0.07689130	0.06978179	0.00000000	0.00000000	-1.32843738	0.00000000	0.00000000	-96.97823632	-20.65882661	0.00000000	0.00000000
6.30000000	30.00000000	0.00000000	0.00000000	0.07689531	0.06974681	0.00000000	0.00000000	-1.38794039	0.00000000	0.00000000	-97.10759308	-20.91386529	0.00000000	0.00000000
6.30500000	30.00000000	0.00000000	0.00000000	0.07689127	0.06975231	0.00000000	0.00000000	-1.45195627	0.00000000	0.00000000	-97.26413589	-21.23138405	0.00000000	0.00000000
6.31000000	30.00000000	0.00000000	0.00000000	0.07688229	0.06977272	0.00000000	0.00000000	-1.53628369	0.00000000	0.00000000	-97.47833007	-21.35491335	0.00000000	0.00000000
6.31500000	30.00000000	0.00000000	0.00000000	0.07689983	0.06976175	0.00000000	0.00000000	-1.86726047	0.00000000	0.00000000	-97.62190633	-21.51845444	0.00000000	0.00000000
6.32000000	30.00000000	0.00000000	0.00000000	0.07693394	0.06970924	0.00000000	0.00000000	-1.99046347	0.00000000	0.00000000	-97.82787945	-21.68094169	0.00000000	0.00000000
6.32500000	30.00000000	0.00000000	0.00000000	0.07698279	0.06966932	0.00000000	0.00000000	-2.05304893	0.00000000	0.00000000	-98.04713543	-21.77371069	0.00000000	0.00000000
6.33000000	30.00000000	0.00000000	0.00000000	0.07702055	0.06964038	0.00000000	0.00000000	-2.32701315	0.00000000	0.00000000	-98.11701305	-21.85960710	0.00000000	0.00000000
6.33500000	30.00000000	0.00000000	0.00000000	0.07709465	0.06957025	0.00000000	0.00000000	-2.45861141	0.00000000	0.00000000	-98.30284759	-22.22296634	0.00000000	0.00000000
6.34000000	30.00000000	0.00000000	0.00000000	0.07719515	0.06946708	0.00000000	0.00000000	-2.53579108	0.00000000	0.00000000	-98.53869770	-22.19872888	0.00000000	0.00000000
